<?xml version="1.0" encoding="UTF-8"?>
<svg width="200px" height="200px" viewBox="0 0 200 200" version="1.1" xmlns="http://www.w3.org/2000/svg" xmlns:xlink="http://www.w3.org/1999/xlink">
    <title>电子邮箱</title>
    <g id="页面-8" stroke="none" stroke-width="1" fill="none" fill-rule="evenodd">
        <g id="电子邮箱" fill-rule="nonzero">
            <path d="M0,100 C0,155.228475 44.771525,200 100,200 C155.228475,200 200,155.228475 200,100 C200,44.771525 155.228475,0 100,0 C44.771525,0 0,44.771525 0,100 Z" id="路径" fill="#1C3F95"></path>
            <path d="M177.044445,147.555555 L177.044445,86.1777777 C176.961311,82.3759375 175.214885,78.8018555 172.266667,76.4 L111.111111,21.3777777 C103.801344,14.8261151 92.7319892,14.8261151 85.4222223,21.3777777 L24.4444445,76.4 C21.4923703,78.7964729 19.7514439,82.3759476 19.6888889,86.1777777 L19.6888889,147.555555 L177.044445,147.555555 Z" id="路径" fill="#E9EAEB"></path>
            <path d="M180.333333,150.822222 L16.4,150.822222 L16.4,86.1555555 C16.4326901,81.4071952 18.5641421,76.9165024 22.2222223,73.8888889 L83.3111111,18.9777777 C91.8497143,11.3099429 104.79473,11.3099429 113.333333,18.9777777 L174.422222,73.8888889 C178.109565,76.9121367 180.273034,81.4098762 180.333333,86.1777777 L180.333333,150.822222 Z M22.9333334,144.155555 L173.755555,144.155555 L173.755555,86.1777777 C173.700152,83.3658826 172.417298,80.71898 170.244445,78.9333334 L170.088889,78.8 L109.022222,23.7777777 C102.959787,18.3383429 93.7735464,18.3383429 87.7111111,23.7777777 L26.4666666,78.9555555 C24.2950397,80.7444945 23.006038,83.3873535 22.9333334,86.2 L22.9333334,144.155555 Z" id="形状" fill="#A70101"></path>
            <polygon id="路径" fill="#FFFFFF" points="42.6222223 39.3555555 154.088889 39.3555555 154.088889 144.266667 42.6222223 144.266667"></polygon>
            <path d="M157.377778,147.555555 L39.3333334,147.555555 L39.3333334,36.0666666 L157.355555,36.0666666 L157.377778,147.555555 Z M45.8888889,140.888889 L150.822222,140.888889 L150.822222,42.6444445 L45.8888889,42.6444445 L45.8888889,140.888889 Z" id="形状" fill="#A70101"></path>
            <path d="M173.755555,91.8 C166.666667,97.6 127.333333,130.044445 123.2,132.444445 C118.755555,135.066667 109.2,137.711111 98.3777777,137.711111 C87.5555555,137.711111 78.0888889,135.066667 73.5333334,132.444445 C69.3777779,130.044445 30.1111111,97.5555557 22.9555555,91.8 L19.6666666,91.8 L19.6666666,170.511111 C19.6666666,173.119981 20.7045481,175.621676 22.5513812,177.46434 C24.3982143,179.307004 26.9022477,180.339236 29.5111111,180.333359 L167.288889,180.333359 C172.713552,180.333359 177.111111,175.935775 177.111111,170.511111 L177.111111,91.8 L173.755555,91.8 Z" id="路径" fill="#FE490D"></path>
            <path d="M167.177778,183.533333 L29.5111111,183.533333 C22.3046161,183.533333 16.4488576,177.717441 16.4,170.511111 L16.4,88.5333334 L24.1111111,88.5333334 L25,89.2666666 C26.6888889,90.6222221 30.1555555,93.4666666 34.5333334,97.0444445 C46.6666666,107.066667 72.1777777,127.911111 75.1555555,129.6 C79.2,131.822222 88.2,134.422222 98.3333334,134.422222 C108.466667,134.422222 117.488889,131.933333 121.488889,129.6 C124.444445,127.911111 149.888889,107.066667 162.222222,97.0444445 C166.666667,93.4444445 170.088889,90.6222223 171.777778,89.2666666 L172.666667,88.5333334 L180.377778,88.5333334 L180.377778,170.511111 C180.328989,177.708783 174.486716,183.521299 167.288889,183.533333 L167.177778,183.533333 Z M22.9333334,96.0444445 L22.9333334,170.511111 C22.9333334,174.150051 25.8504547,177.117129 29.4888889,177.177778 L167.266667,177.177778 C169.034777,177.177778 170.730469,176.475399 171.980712,175.225156 C173.230954,173.974914 173.933333,172.279221 173.933333,170.511111 L173.933333,96.0444445 L166.288889,102.222222 C146.288889,118.666667 127.977778,133.577778 124.822222,135.4 C119.911111,138.288889 109.822222,141.111111 98.3555555,141.111111 C86.8888887,141.111111 76.8,138.2 71.8888889,135.4 C68.7333334,133.466667 50.4444443,118.555555 30.3777777,102.222222 L22.9333334,96.0444445 Z" id="形状" fill="#A70101"></path>
            <path d="M30.4,164.977778 L66.2666666,126.666667 L71.1111111,131.111111 L35.1777777,169.444445 L30.4,164.977778 Z M125.555555,131.111111 L130.355555,126.666667 L166.244445,164.977778 L161.444445,169.422222 L125.555555,131.111111 Z M65.5555555,68.8888889 L127.777778,68.8888889 L127.777778,75.4444445 L65.5555555,75.4444445 L65.5555555,68.8888889 Z M65.5555555,82 L127.777778,82 L127.777778,88.6666666 L65.5555555,88.6666666 L65.5555555,82 Z M65.5555555,95.1111111 L108.2,95.1111111 L108.2,101.777778 L65.5777777,101.777778 L65.5555555,95.1111111 Z" id="形状" fill="#A70101"></path>
        </g>
    </g>
</svg>